<?xml version="1.0" encoding="utf-8"?>
<!-- Generator: Adobe Illustrator 24.1.1, SVG Export Plug-In . SVG Version: 6.00 Build 0)  -->
<svg version="1.1" xmlns="http://www.w3.org/2000/svg" xmlns:xlink="http://www.w3.org/1999/xlink" x="0px" y="0px"
	 viewBox="0 0 132.3 113.5" style="enable-background:new 0 0 132.3 113.5;" xml:space="preserve">
<style type="text/css">
	.st0{fill:#FFFFFF;stroke:#000000;stroke-miterlimit:10;}
	.st1{fill:none;stroke:#000000;stroke-width:1.5;stroke-linecap:round;stroke-linejoin:round;}
	.st2{fill:#DB7F07;stroke:#000000;stroke-width:1.5;stroke-linecap:round;stroke-linejoin:round;}
	.st3{fill:none;stroke:#000000;stroke-linecap:round;stroke-linejoin:round;}
	.st4{fill:#00608F;stroke:#000000;stroke-width:1.5;stroke-linecap:round;stroke-linejoin:round;}
	.st5{fill:#00608F;stroke:#000000;stroke-linecap:round;stroke-linejoin:round;}
	.st6{fill:#3DC9B5;stroke:#000000;stroke-width:1.5;stroke-linecap:round;stroke-linejoin:round;}
	.st7{fill:#3DC9B5;stroke:#000000;stroke-linecap:round;stroke-linejoin:round;}
	.st8{fill:#D34FD3;stroke:#000000;stroke-width:1.5;stroke-linecap:round;stroke-linejoin:round;}
	.st9{fill:#D34FD3;stroke:#000000;stroke-linecap:round;stroke-linejoin:round;}
	.st10{stroke:#000000;stroke-width:1.5;stroke-linecap:round;stroke-linejoin:round;}
	.st11{stroke:#000000;stroke-linecap:round;stroke-linejoin:round;}
	.st12{fill:none;stroke:#00608F;stroke-width:1.5;stroke-linecap:round;stroke-linejoin:round;}
	.st13{fill:#BE4932;stroke:#000000;stroke-width:1.5;stroke-miterlimit:10;}
</style>
<g id="Layer_2">
	<circle class="st0" cx="65.6" cy="56.8" r="53.6"/>
</g>
<g id="Ebene_1">
	<g>
		<circle class="st1" cx="66.6" cy="56.8" r="25.2"/>
		<g>
			<path class="st1" d="M104.6,34.6c-3-0.1-6.2,2.1-8.2,4.3c-0.4,0.5-0.4,1.2,0,1.7c1.9,2.1,5.1,4.3,8.2,4.3
				c3.1,0.1,6.2-2.1,8.2-4.3c0.4-0.5,0.4-1.2,0-1.7C110.8,36.7,107.7,34.6,104.6,34.6z"/>
			<path class="st2" d="M107.5,39.7c0,1.6-1.3,2.8-2.8,2.8c-1.6,0-2.8-1.3-2.8-2.8c0-1.6,1.3-2.8,2.8-2.8
				C106.2,36.9,107.5,38.1,107.5,39.7L107.5,39.7z"/>
		</g>
		<g>
			<circle class="st2" cx="96.9" cy="27.6" r="3.9"/>
			<path class="st3" d="M94.9,28.1c0-1.4,1.1-2.5,2.4-2.5l0,0"/>
			<line class="st1" x1="85.5" y1="39.2" x2="94.1" y2="30.4"/>
		</g>
		<g>
			<circle class="st4" cx="39.1" cy="33.9" r="3.9"/>
			<path class="st5" d="M39.7,35.9c-1.4,0.1-2.5-1-2.6-2.3l0,0"/>
			<line class="st1" x1="47" y1="41" x2="42.1" y2="36.6"/>
		</g>
		<g>
			<circle class="st6" cx="90.8" cy="84.4" r="3.9"/>
			<path class="st7" d="M90.3,82.4c1.4,0,2.5,1.1,2.4,2.5l0,0"/>
			<line class="st1" x1="83.4" y1="76.9" x2="88.1" y2="81.6"/>
		</g>
		<g>
			<circle class="st8" cx="50" cy="95.4" r="3.9"/>
			<path class="st9" d="M51.7,94.3c0.4,1.3-0.3,2.7-1.5,3.1l0,0"/>
			<line class="st1" x1="56.9" y1="80.9" x2="52.3" y2="91.2"/>
		</g>
		<g>
			<path class="st1" d="M26.6,41.9c-3-0.1-6.2,2.1-8.2,4.3c-0.4,0.5-0.4,1.2,0,1.7c1.9,2.1,5.1,4.3,8.2,4.3c3.1,0.1,6.2-2.1,8.2-4.3
				c0.4-0.5,0.4-1.2,0-1.7C32.8,43.9,29.7,41.8,26.6,41.9z"/>
			<path class="st4" d="M29.5,47c0,1.6-1.3,2.8-2.8,2.8c-1.6,0-2.8-1.3-2.8-2.8c0-1.6,1.3-2.8,2.8-2.8C28.2,44.1,29.5,45.4,29.5,47
				L29.5,47z"/>
		</g>
		<g>
			<path class="st1" d="M38.6,74.9c-3-0.1-6.2,2.1-8.2,4.3c-0.4,0.5-0.4,1.2,0,1.7c1.9,2.1,5.1,4.3,8.2,4.3c3.1,0.1,6.2-2.1,8.2-4.3
				c0.4-0.5,0.4-1.2,0-1.7C44.8,76.9,41.7,74.8,38.6,74.9z"/>
			<path class="st8" d="M41.5,80c0,1.6-1.3,2.8-2.8,2.8c-1.6,0-2.8-1.3-2.8-2.8c0-1.6,1.3-2.8,2.8-2.8C40.2,77.1,41.5,78.4,41.5,80
				L41.5,80z"/>
		</g>
		<g>
			<circle class="st10" cx="64.7" cy="92.3" r="3.5"/>
			<path class="st11" d="M65.6,90.8c0.9,0.9,0.8,2.3,0,3.1l0,0"/>
			<line class="st1" x1="64.7" y1="82.8" x2="64.7" y2="88.8"/>
		</g>
		<g>
			<circle class="st10" cx="58.8" cy="21.8" r="3.7"/>
			<path class="st11" d="M58.2,23.6c-1.1-0.8-1.3-2.2-0.6-3.2l0,0"/>
			<line class="st1" x1="60.7" y1="31.7" x2="59.5" y2="25.4"/>
		</g>
		<path class="st12" d="M60.5,45.5c0,0.2-0.2,0.4-0.4,0.4s-0.4-0.2-0.4-0.4l0,0c0-0.2,0.2-0.4,0.4-0.4l0,0
			C60.3,45.1,60.5,45.3,60.5,45.5L60.5,45.5L60.5,45.5"/>
		<path class="st12" d="M63.8,47.2H69c0.9,0,1.6-0.7,1.6-1.6l0,0c0-0.9-0.7-1.6-1.6-1.6l0,0h-5.2c-0.9-2.1-3.3-3-5.4-2.1l0,0
			c-2.1,0.9-3,3.3-2.1,5.4l0,0c0.9,2.1,3.3,3,5.4,2.1l0,0C62.7,49,63.4,48.2,63.8,47.2z"/>
		<line class="st1" x1="59.1" y1="57.6" x2="69.5" y2="57.6"/>
		<line class="st1" x1="59.1" y1="62" x2="67.3" y2="62"/>
		<line class="st1" x1="59.1" y1="66.6" x2="65.1" y2="66.6"/>
		<path class="st1" d="M66.5,71h-9c-0.8,0-1.5-0.7-1.5-1.5V53c0-0.8,0.7-1.5,1.5-1.5h10.6c0.4,0,0.8,0.2,1.1,0.4l2.9,2.9
			c0.3,0.3,0.4,0.7,0.4,1.1v2.4"/>
		<circle class="st13" cx="72.5" cy="66.6" r="4.4"/>
	</g>
</g>
</svg>
