<?xml version="1.0" encoding="utf-8"?>
<!-- Generator: Adobe Illustrator 24.1.0, SVG Export Plug-In . SVG Version: 6.00 Build 0)  -->
<svg version="1.1" id="Ebene_1" xmlns="http://www.w3.org/2000/svg" xmlns:xlink="http://www.w3.org/1999/xlink" x="0px" y="0px"
	 viewBox="0 0 24 24" style="enable-background:new 0 0 24 24;" xml:space="preserve">
<style type="text/css">
	.st0{fill:none;stroke:#000000;stroke-width:1.5;stroke-linecap:round;stroke-linejoin:round;}
	.st1{fill:none;stroke:#00608F;stroke-width:0.25;stroke-linecap:round;stroke-linejoin:round;}
	.st2{fill:none;stroke:#000000;stroke-width:0.25;stroke-linecap:round;stroke-linejoin:round;}
	.st3{fill:#BE4932;stroke:#000000;stroke-width:0.25;stroke-miterlimit:10;}
</style>
<path class="st0" d="M3,2.3h18c0.8,0,1.5,0.7,1.5,1.5v16.5c0,0.8-0.7,1.5-1.5,1.5H3c-0.8,0-1.5-0.7-1.5-1.5V3.8
	C1.5,2.9,2.2,2.3,3,2.3z"/>
<line class="st0" x1="1.5" y1="6.8" x2="22.5" y2="6.8"/>
<g>
	<path class="st1" d="M5.8,12.9C5.8,12.9,5.7,12.9,5.8,12.9c-0.1,0.1-0.1,0-0.1,0l0,0C5.7,12.9,5.7,12.8,5.8,12.9L5.8,12.9
		C5.7,12.8,5.8,12.9,5.8,12.9L5.8,12.9L5.8,12.9"/>
	<path class="st1" d="M6.2,13.1H7c0.1,0,0.2-0.1,0.2-0.2l0,0c0-0.1-0.1-0.2-0.2-0.2l0,0H6.2c-0.1-0.3-0.5-0.4-0.8-0.3l0,0
		c-0.3,0.1-0.4,0.5-0.3,0.8l0,0c0.1,0.3,0.5,0.4,0.8,0.3l0,0C6.1,13.4,6.2,13.3,6.2,13.1z"/>
	<line class="st2" x1="5.6" y1="14.6" x2="7" y2="14.6"/>
	<line class="st2" x1="5.6" y1="15.2" x2="6.7" y2="15.2"/>
	<line class="st2" x1="5.6" y1="15.8" x2="6.4" y2="15.8"/>
	<path class="st2" d="M6.6,16.4H5.4c-0.1,0-0.2-0.1-0.2-0.2v-2.3c0-0.1,0.1-0.2,0.2-0.2h1.5c0.1,0,0.1,0,0.2,0.1l0.4,0.4
		c0,0,0.1,0.1,0.1,0.2v0.3"/>
	<circle class="st3" cx="7.4" cy="15.8" r="0.6"/>
</g>
<g>
	<path class="st1" d="M9.5,12.9C9.5,13,9.5,13,9.5,12.9c-0.1,0.1-0.1,0-0.1,0l0,0C9.4,12.9,9.4,12.9,9.5,12.9L9.5,12.9
		C9.5,12.9,9.5,12.9,9.5,12.9L9.5,12.9L9.5,12.9"/>
	<path class="st1" d="M10,13.2h0.7c0.1,0,0.2-0.1,0.2-0.2l0,0c0-0.1-0.1-0.2-0.2-0.2l0,0H10c-0.1-0.3-0.5-0.4-0.8-0.3l0,0
		c-0.3,0.1-0.4,0.5-0.3,0.8l0,0c0.1,0.3,0.5,0.4,0.8,0.3l0,0C9.8,13.4,9.9,13.3,10,13.2z"/>
	<line class="st2" x1="9.3" y1="14.6" x2="10.8" y2="14.6"/>
	<line class="st2" x1="9.3" y1="15.2" x2="10.5" y2="15.2"/>
	<line class="st2" x1="9.3" y1="15.9" x2="10.2" y2="15.9"/>
	<path class="st2" d="M10.4,16.5H9.1c-0.1,0-0.2-0.1-0.2-0.2V14c0-0.1,0.1-0.2,0.2-0.2h1.5c0.1,0,0.1,0,0.2,0.1l0.4,0.4
		c0,0,0.1,0.1,0.1,0.2v0.3"/>
	<circle class="st3" cx="11.2" cy="15.9" r="0.6"/>
</g>
<g>
	<path class="st1" d="M13.2,12.9C13.2,13,13.1,13,13.2,12.9c-0.1,0.1-0.1,0-0.1,0l0,0C13.1,12.9,13.1,12.9,13.2,12.9L13.2,12.9
		C13.1,12.9,13.2,12.9,13.2,12.9L13.2,12.9L13.2,12.9"/>
	<path class="st1" d="M13.6,13.2h0.7c0.1,0,0.2-0.1,0.2-0.2l0,0c0-0.1-0.1-0.2-0.2-0.2l0,0h-0.7c-0.1-0.3-0.5-0.4-0.8-0.3l0,0
		c-0.3,0.1-0.4,0.5-0.3,0.8l0,0c0.1,0.3,0.5,0.4,0.8,0.3l0,0C13.5,13.4,13.6,13.3,13.6,13.2z"/>
	<line class="st2" x1="13" y1="14.6" x2="14.4" y2="14.6"/>
	<line class="st2" x1="13" y1="15.2" x2="14.1" y2="15.2"/>
	<line class="st2" x1="13" y1="15.9" x2="13.8" y2="15.9"/>
	<path class="st2" d="M14,16.5h-1.3c-0.1,0-0.2-0.1-0.2-0.2V14c0-0.1,0.1-0.2,0.2-0.2h1.5c0.1,0,0.1,0,0.2,0.1l0.4,0.4
		c0,0,0.1,0.1,0.1,0.2v0.3"/>
	<circle class="st3" cx="14.8" cy="15.9" r="0.6"/>
</g>
<g>
	<path class="st1" d="M16.9,13C16.9,13,16.9,13,16.9,13c-0.1,0.1-0.1,0-0.1,0l0,0C16.8,12.9,16.8,12.9,16.9,13L16.9,13
		C16.9,12.9,16.9,12.9,16.9,13L16.9,13L16.9,13"/>
	<path class="st1" d="M17.4,13.2h0.7c0.1,0,0.2-0.1,0.2-0.2l0,0c0-0.1-0.1-0.2-0.2-0.2l0,0h-0.7c-0.1-0.3-0.5-0.4-0.8-0.3l0,0
		c-0.3,0.1-0.4,0.5-0.3,0.8l0,0c0.1,0.3,0.5,0.4,0.8,0.3l0,0C17.2,13.4,17.3,13.3,17.4,13.2z"/>
	<line class="st2" x1="16.7" y1="14.6" x2="18.2" y2="14.6"/>
	<line class="st2" x1="16.7" y1="15.3" x2="17.9" y2="15.3"/>
	<line class="st2" x1="16.7" y1="15.9" x2="17.6" y2="15.9"/>
	<path class="st2" d="M17.8,16.5h-1.3c-0.1,0-0.2-0.1-0.2-0.2V14c0-0.1,0.1-0.2,0.2-0.2H18c0.1,0,0.1,0,0.2,0.1l0.4,0.4
		c0,0,0.1,0.1,0.1,0.2v0.3"/>
	<circle class="st3" cx="18.6" cy="15.9" r="0.6"/>
</g>
</svg>
