<?xml version="1.0" encoding="utf-8"?>
<!-- Generator: Adobe Illustrator 24.1.0, SVG Export Plug-In . SVG Version: 6.00 Build 0)  -->
<svg version="1.1" id="Ebene_1" xmlns="http://www.w3.org/2000/svg" xmlns:xlink="http://www.w3.org/1999/xlink" x="0px" y="0px"
	 viewBox="0 0 96.5 82.8" style="enable-background:new 0 0 96.5 82.8;" xml:space="preserve">
<style type="text/css">
	.st0{fill:none;stroke:#000000;stroke-width:1.5;stroke-linecap:round;stroke-linejoin:round;}
	.st1{fill:#DB7F07;stroke:#000000;stroke-width:1.5;stroke-linecap:round;stroke-linejoin:round;}
	.st2{fill:none;stroke:#000000;stroke-linecap:round;stroke-linejoin:round;}
	.st3{fill:#00608F;stroke:#000000;stroke-width:1.5;stroke-linecap:round;stroke-linejoin:round;}
	.st4{fill:#00608F;stroke:#000000;stroke-linecap:round;stroke-linejoin:round;}
	.st5{fill:#3DC9B5;stroke:#000000;stroke-width:1.5;stroke-linecap:round;stroke-linejoin:round;}
	.st6{fill:#3DC9B5;stroke:#000000;stroke-linecap:round;stroke-linejoin:round;}
	.st7{fill:#D34FD3;stroke:#000000;stroke-width:1.5;stroke-linecap:round;stroke-linejoin:round;}
	.st8{fill:#D34FD3;stroke:#000000;stroke-linecap:round;stroke-linejoin:round;}
	.st9{stroke:#000000;stroke-width:1.5;stroke-linecap:round;stroke-linejoin:round;}
	.st10{stroke:#000000;stroke-linecap:round;stroke-linejoin:round;}
	.st11{fill:none;stroke:#00608F;stroke-width:1.5;stroke-linecap:round;stroke-linejoin:round;}
	.st12{fill:#BE4932;stroke:#000000;stroke-width:1.5;stroke-miterlimit:10;}
</style>
<g>
	<circle class="st0" cx="49.2" cy="39.5" r="25.2"/>
	<g>
		<path class="st0" d="M87.2,17.3c-3-0.1-6.2,2.1-8.2,4.3c-0.4,0.5-0.4,1.2,0,1.7c1.9,2.1,5.1,4.3,8.2,4.3c3.1,0.1,6.2-2.1,8.2-4.3
			c0.4-0.5,0.4-1.2,0-1.7C93.4,19.4,90.3,17.3,87.2,17.3z"/>
		<path class="st1" d="M90.1,22.4c0,1.6-1.3,2.8-2.8,2.8c-1.6,0-2.8-1.3-2.8-2.8c0-1.6,1.3-2.8,2.8-2.8
			C88.8,19.6,90.1,20.8,90.1,22.4C90.1,22.4,90.1,22.4,90.1,22.4z"/>
	</g>
	<g>
		<circle class="st1" cx="79.5" cy="10.3" r="3.9"/>
		<path class="st2" d="M77.5,10.8c0-1.4,1.1-2.5,2.4-2.5l0,0"/>
		<line class="st0" x1="68.1" y1="21.9" x2="76.7" y2="13.1"/>
	</g>
	<g>
		<circle class="st3" cx="21.7" cy="16.6" r="3.9"/>
		<path class="st4" d="M22.3,18.6c-1.4,0.1-2.5-1-2.6-2.3l0,0"/>
		<line class="st3" x1="29.6" y1="23.7" x2="24.7" y2="19.3"/>
	</g>
	<g>
		<circle class="st5" cx="73.4" cy="67.1" r="3.9"/>
		<path class="st6" d="M72.9,65.1c1.4,0,2.5,1.1,2.4,2.5l0,0"/>
		<line class="st5" x1="66" y1="59.6" x2="70.7" y2="64.3"/>
	</g>
	<g>
		<circle class="st7" cx="32.6" cy="78.1" r="3.9"/>
		<path class="st8" d="M34.3,77c0.4,1.3-0.3,2.7-1.5,3.1l0,0"/>
		<line class="st7" x1="39.5" y1="63.6" x2="34.9" y2="73.9"/>
	</g>
	<g>
		<path class="st0" d="M9.2,24.6c-3-0.1-6.2,2.1-8.2,4.3c-0.4,0.5-0.4,1.2,0,1.7c1.9,2.1,5.1,4.3,8.2,4.3c3.1,0.1,6.2-2.1,8.2-4.3
			c0.4-0.5,0.4-1.2,0-1.7C15.4,26.6,12.3,24.5,9.2,24.6z"/>
		<path class="st3" d="M12.1,29.7c0,1.6-1.3,2.8-2.8,2.8c-1.6,0-2.8-1.3-2.8-2.8c0-1.6,1.3-2.8,2.8-2.8
			C10.8,26.8,12.1,28.1,12.1,29.7C12.1,29.7,12.1,29.7,12.1,29.7z"/>
	</g>
	<g>
		<path class="st0" d="M21.2,57.6c-3-0.1-6.2,2.1-8.2,4.3c-0.4,0.5-0.4,1.2,0,1.7c1.9,2.1,5.1,4.3,8.2,4.3c3.1,0.1,6.2-2.1,8.2-4.3
			c0.4-0.5,0.4-1.2,0-1.7C27.4,59.6,24.3,57.5,21.2,57.6z"/>
		<path class="st7" d="M24.1,62.7c0,1.6-1.3,2.8-2.8,2.8c-1.6,0-2.8-1.3-2.8-2.8c0-1.6,1.3-2.8,2.8-2.8
			C22.8,59.8,24.1,61.1,24.1,62.7C24.1,62.7,24.1,62.7,24.1,62.7z"/>
	</g>
	<g>
		<circle class="st9" cx="47.3" cy="75" r="3.5"/>
		<path class="st10" d="M48.2,73.5c0.9,0.9,0.8,2.3,0,3.1l0,0"/>
		<line class="st9" x1="47.3" y1="65.5" x2="47.3" y2="71.5"/>
	</g>
	<g>
		<circle class="st9" cx="41.4" cy="4.5" r="3.7"/>
		<path class="st10" d="M40.8,6.3c-1.1-0.8-1.3-2.2-0.6-3.2l0,0"/>
		<line class="st9" x1="43.3" y1="14.4" x2="42.1" y2="8.1"/>
	</g>
	<path class="st11" d="M43.1,28.2c0,0.2-0.2,0.4-0.4,0.4c-0.2,0-0.4-0.2-0.4-0.4l0,0c0-0.2,0.2-0.4,0.4-0.4l0,0
		C42.9,27.8,43.1,28,43.1,28.2C43.1,28.2,43.1,28.2,43.1,28.2L43.1,28.2"/>
	<path class="st11" d="M46.4,29.9h5.2c0.9,0,1.6-0.7,1.6-1.6c0,0,0,0,0,0c0-0.9-0.7-1.6-1.6-1.6c0,0,0,0,0,0h-5.2
		c-0.9-2.1-3.3-3-5.4-2.1c0,0,0,0,0,0c-2.1,0.9-3,3.3-2.1,5.4c0,0,0,0,0,0c0.9,2.1,3.3,3,5.4,2.1c0,0,0,0,0,0
		C45.3,31.7,46,30.9,46.4,29.9z"/>
	<line class="st0" x1="41.7" y1="40.3" x2="52.1" y2="40.3"/>
	<line class="st0" x1="41.7" y1="44.7" x2="49.9" y2="44.7"/>
	<line class="st0" x1="41.7" y1="49.3" x2="47.7" y2="49.3"/>
	<path class="st0" d="M49.1,53.7h-9c-0.8,0-1.5-0.7-1.5-1.5V35.7c0-0.8,0.7-1.5,1.5-1.5h10.6c0.4,0,0.8,0.2,1.1,0.4l2.9,2.9
		c0.3,0.3,0.4,0.7,0.4,1.1V41"/>
	<circle class="st12" cx="55.1" cy="49.3" r="4.4"/>
</g>
</svg>
