<?xml version="1.0" encoding="utf-8"?>
<!-- Generator: Adobe Illustrator 24.1.1, SVG Export Plug-In . SVG Version: 6.00 Build 0)  -->
<svg version="1.1" id="Ebene_1" xmlns="http://www.w3.org/2000/svg" xmlns:xlink="http://www.w3.org/1999/xlink" x="0px" y="0px"
	 viewBox="0 0 24.1 24.1" style="enable-background:new 0 0 24.1 24.1;" xml:space="preserve">
<style type="text/css">
	.st0{fill:none;stroke:#000000;stroke-width:1.5;stroke-linecap:round;stroke-linejoin:round;}
	.st1{stroke:#000000;stroke-width:0.5;stroke-miterlimit:10;}
</style>
<path class="st0" d="M1.5,1.3"/>
<path class="st0" d="M22.5,1.3"/>
<path class="st0" d="M22.5,1.3"/>
<path class="st0" d="M1.5,1.3"/>
<path class="st0" d="M12,2.5"/>
<path class="st0" d="M6,2.5"/>
<path d="M10.3,21.3h-0.2c-0.7-0.2-1.2-0.8-1.2-1.5v-4.6C4,13.8,0.4,9.5,0,4.3c0-0.4,0.1-0.9,0.4-1.2c0.3-0.3,0.6-0.4,1-0.4h21
	c0.8,0,1.5,0.7,1.5,1.5l0,0l0,0v0.1c-0.4,5.1-4,9.4-9,10.7v4.6c0,0.9-0.7,1.7-1.5,1.7l0,0H10.3L10.3,21.3z M13.3,19.8L13.3,19.8
	v-5.2c0-0.4,0.3-0.7,0.6-0.7c4.6-1,8-4.8,8.4-9.5H1.5c0.3,4.7,3.7,8.5,8.3,9.5c0.3,0.1,0.6,0.4,0.6,0.7v5.2h0.1H13.3z"/>
<path class="st1" d="M12.3,11.6L12.3,11.6c-0.1,0-0.1,0-0.2-0.1v-0.1l0.4-1.2h-1.4l-0.4,1.3c0,0.1-0.1,0.1-0.2,0.1l0,0
	c0,0-0.1,0-0.1-0.1v-0.1l0.4-1.2H9.7c-0.1,0-0.2-0.1-0.2-0.2s0.1-0.2,0.2-0.2h1.2l0.6-1.7h-1.1c-0.1,0-0.2-0.1-0.2-0.2
	s0.1-0.2,0.2-0.2h1.2l0.5-1.6C12.1,6,12.2,6,12.3,6h0.1c0.1,0,0.1,0.1,0.1,0.2l0,0L12,7.8h1.4l0.5-1.6c0-0.1,0.1-0.1,0.2-0.1h0.1
	c0,0,0.1,0,0.1,0.1v0.1l-0.5,1.5H15c0.1,0,0.2,0.1,0.2,0.2S15.1,8.2,15,8.2h-1.3L13,9.8h1.2c0.1,0,0.2,0.1,0.2,0.2s-0.1,0.2-0.2,0.2
	h-1.3l-0.4,1.3C12.5,11.5,12.4,11.6,12.3,11.6z M12.7,9.8l0.6-1.7h-1.4l-0.6,1.7H12.7z"/>
</svg>
