<?xml version="1.0" encoding="utf-8"?>
<!-- Generator: Adobe Illustrator 24.1.1, SVG Export Plug-In . SVG Version: 6.00 Build 0)  -->
<svg version="1.1" id="Ebene_1" xmlns="http://www.w3.org/2000/svg" xmlns:xlink="http://www.w3.org/1999/xlink" x="0px" y="0px"
	 viewBox="0 0 108.3 105.7" style="enable-background:new 0 0 108.3 105.7;" xml:space="preserve">
<style type="text/css">
	.st0{fill:#FFFFFF;}
	.st1{fill:none;stroke:#000000;stroke-width:1.5;stroke-linecap:round;stroke-linejoin:round;}
	.st2{fill:#DB7F07;stroke:#000000;stroke-width:1.5;stroke-linecap:round;stroke-linejoin:round;}
	.st3{fill:none;stroke:#000000;stroke-linecap:round;stroke-linejoin:round;}
	.st4{fill:#00608F;stroke:#000000;stroke-width:1.5;stroke-linecap:round;stroke-linejoin:round;}
	.st5{fill:#00608F;stroke:#000000;stroke-linecap:round;stroke-linejoin:round;}
	.st6{fill:#3DC9B5;stroke:#000000;stroke-width:1.5;stroke-linecap:round;stroke-linejoin:round;}
	.st7{fill:#3DC9B5;stroke:#000000;stroke-linecap:round;stroke-linejoin:round;}
	.st8{fill:#D34FD3;stroke:#000000;stroke-width:1.5;stroke-linecap:round;stroke-linejoin:round;}
	.st9{fill:#D34FD3;stroke:#000000;stroke-linecap:round;stroke-linejoin:round;}
	.st10{stroke:#000000;stroke-width:1.5;stroke-linecap:round;stroke-linejoin:round;}
	.st11{stroke:#000000;stroke-linecap:round;stroke-linejoin:round;}
	.st12{fill:none;stroke:#00608F;stroke-width:1.5;stroke-linecap:round;stroke-linejoin:round;}
	.st13{fill:#BE4932;stroke:#000000;stroke-width:1.5;stroke-miterlimit:10;}
</style>
<circle class="st0" cx="54.7" cy="52.9" r="52.6"/>
<g>
	<circle class="st1" cx="55.1" cy="51" r="25.2"/>
	<g>
		<path class="st1" d="M93.1,28.8c-3-0.1-6.2,2.1-8.2,4.3c-0.4,0.5-0.4,1.2,0,1.7c1.9,2.1,5.1,4.3,8.2,4.3c3.1,0.1,6.2-2.1,8.2-4.3
			c0.4-0.5,0.4-1.2,0-1.7C99.3,30.9,96.2,28.8,93.1,28.8z"/>
		<path class="st2" d="M96,33.9c0,1.6-1.3,2.8-2.8,2.8c-1.6,0-2.8-1.3-2.8-2.8c0-1.6,1.3-2.8,2.8-2.8C94.7,31.1,96,32.3,96,33.9
			L96,33.9z"/>
	</g>
	<g>
		<circle class="st2" cx="85.4" cy="21.8" r="3.9"/>
		<path class="st3" d="M83.4,22.3c0-1.4,1.1-2.5,2.4-2.5l0,0"/>
		<line class="st1" x1="74" y1="33.4" x2="82.6" y2="24.6"/>
	</g>
	<g>
		<circle class="st4" cx="27.6" cy="28.1" r="3.9"/>
		<path class="st5" d="M28.2,30.1c-1.4,0.1-2.5-1-2.6-2.3l0,0"/>
		<line class="st1" x1="35.5" y1="35.2" x2="30.6" y2="30.8"/>
	</g>
	<g>
		<circle class="st6" cx="79.3" cy="78.6" r="3.9"/>
		<path class="st7" d="M78.8,76.6c1.4,0,2.5,1.1,2.4,2.5l0,0"/>
		<line class="st1" x1="71.9" y1="71.1" x2="76.6" y2="75.8"/>
	</g>
	<g>
		<circle class="st8" cx="38.5" cy="89.6" r="3.9"/>
		<path class="st9" d="M40.2,88.5c0.4,1.3-0.3,2.7-1.5,3.1l0,0"/>
		<line class="st1" x1="45.4" y1="75.1" x2="40.8" y2="85.4"/>
	</g>
	<g>
		<path class="st1" d="M15.1,36.1c-3-0.1-6.2,2.1-8.2,4.3c-0.4,0.5-0.4,1.2,0,1.7c1.9,2.1,5.1,4.3,8.2,4.3c3.1,0.1,6.2-2.1,8.2-4.3
			c0.4-0.5,0.4-1.2,0-1.7C21.3,38.1,18.2,36,15.1,36.1z"/>
		<path class="st4" d="M18,41.2c0,1.6-1.3,2.8-2.8,2.8c-1.6,0-2.8-1.3-2.8-2.8c0-1.6,1.3-2.8,2.8-2.8C16.7,38.3,18,39.6,18,41.2
			L18,41.2z"/>
	</g>
	<g>
		<path class="st1" d="M27.1,69.1c-3-0.1-6.2,2.1-8.2,4.3c-0.4,0.5-0.4,1.2,0,1.7c1.9,2.1,5.1,4.3,8.2,4.3c3.1,0.1,6.2-2.1,8.2-4.3
			c0.4-0.5,0.4-1.2,0-1.7C33.3,71.1,30.2,69,27.1,69.1z"/>
		<path class="st8" d="M30,74.2c0,1.6-1.3,2.8-2.8,2.8c-1.6,0-2.8-1.3-2.8-2.8c0-1.6,1.3-2.8,2.8-2.8C28.7,71.3,30,72.6,30,74.2
			L30,74.2z"/>
	</g>
	<g>
		<circle class="st10" cx="53.2" cy="86.5" r="3.5"/>
		<path class="st11" d="M54.1,85c0.9,0.9,0.8,2.3,0,3.1l0,0"/>
		<line class="st1" x1="53.2" y1="77" x2="53.2" y2="83"/>
	</g>
	<g>
		<circle class="st10" cx="47.3" cy="16" r="3.7"/>
		<path class="st11" d="M46.7,17.8c-1.1-0.8-1.3-2.2-0.6-3.2l0,0"/>
		<line class="st1" x1="49.2" y1="25.9" x2="48" y2="19.6"/>
	</g>
	<path class="st12" d="M49,39.7c0,0.2-0.2,0.4-0.4,0.4s-0.4-0.2-0.4-0.4l0,0c0-0.2,0.2-0.4,0.4-0.4l0,0C48.8,39.3,49,39.5,49,39.7
		L49,39.7L49,39.7"/>
	<path class="st12" d="M52.3,41.4h5.2c0.9,0,1.6-0.7,1.6-1.6l0,0c0-0.9-0.7-1.6-1.6-1.6l0,0h-5.2c-0.9-2.1-3.3-3-5.4-2.1l0,0
		c-2.1,0.9-3,3.3-2.1,5.4l0,0c0.9,2.1,3.3,3,5.4,2.1l0,0C51.2,43.2,51.9,42.4,52.3,41.4z"/>
	<line class="st1" x1="47.6" y1="51.8" x2="58" y2="51.8"/>
	<line class="st1" x1="47.6" y1="56.2" x2="55.8" y2="56.2"/>
	<line class="st1" x1="47.6" y1="60.8" x2="53.6" y2="60.8"/>
	<path class="st1" d="M55,65.2h-9c-0.8,0-1.5-0.7-1.5-1.5V47.2c0-0.8,0.7-1.5,1.5-1.5h10.6c0.4,0,0.8,0.2,1.1,0.4l2.9,2.9
		c0.3,0.3,0.4,0.7,0.4,1.1v2.4"/>
	<circle class="st13" cx="61" cy="60.8" r="4.4"/>
</g>
</svg>
