<?xml version="1.0" encoding="utf-8"?>
<!-- Generator: Adobe Illustrator 24.1.1, SVG Export Plug-In . SVG Version: 6.00 Build 0)  -->
<svg version="1.1" id="Regular" xmlns="http://www.w3.org/2000/svg" xmlns:xlink="http://www.w3.org/1999/xlink" x="0px" y="0px"
	 viewBox="0 0 22.7 22.7" style="enable-background:new 0 0 22.7 22.7;" xml:space="preserve">
<style type="text/css">
	.st0{fill:none;stroke:#000000;stroke-width:1.5;stroke-linecap:round;stroke-linejoin:round;}
	.st1{fill:#BE4932;stroke:#000000;stroke-width:1.5;stroke-miterlimit:10;}
</style>
<path class="st0" d="M13.9,12.4h3.8v-1.9c0-0.2,0.1-0.2,0.3-0.1l3.8,3.6c0.2,0.2,0.2,0.4,0.1,0.7l-0.1,0.1l-3.9,3.3
	c-0.1,0.1-0.3,0.1-0.3-0.1v-1.7h-3.8"/>
<path class="st0" d="M8.7,8.6H5V6.7c0-0.2-0.1-0.2-0.3-0.1l-3.8,3.6c-0.2,0.1-0.2,0.4-0.1,0.6l0.1,0.1l3.8,3.3C4.9,14.3,5,14.2,5,14
	v-1.8h3.8"/>
<line class="st0" x1="10.6" y1="8.6" x2="12.1" y2="8.6"/>
<line class="st0" x1="13.4" y1="8.6" x2="14.8" y2="8.6"/>
<line class="st0" x1="10.6" y1="12.4" x2="12.1" y2="12.4"/>
<circle class="st1" cx="9.2" cy="16.3" r="2.8"/>
</svg>
