<svg width="150" height="198" xmlns="http://www.w3.org/2000/svg" xmlns:xlink="http://www.w3.org/1999/xlink" overflow="hidden"><defs><clipPath id="clip0"><path d="M596 491 746 491 746 689 596 689Z" fill-rule="evenodd" clip-rule="evenodd"/></clipPath></defs><g clip-path="url(#clip0)" transform="translate(-596 -491)"><path d="M732.6 565.469C732.6 532 704.493 504.245 670.6 504.245 656.547 504.245 642.493 509.143 630.92 518.122 630.093 518.939 628.44 519.755 626.787 519.755 625.133 519.755 623.48 518.939 621.827 517.306 621 516.49 621 514.857 621 513.225 621 511.592 621.827 509.959 623.48 509.143 635.88 497.714 653.24 492 670.6 492 711.933 492 745 524.653 745 565.469 745 568.735 742.52 572 738.387 572 735.08 572 732.6 568.735 732.6 565.469Z" fill="#BE4932" fill-rule="evenodd"/><path d="M670.801 688C629.8 688 597 655.447 597 614.755L597 565.926C597 556.973 598.64 548.021 601.92 539.069 602.74 536.628 605.2 535 607.66 535 608.48 535 609.3 535 610.12 535.814 613.4 537.441 615.04 540.697 613.4 543.952 610.12 550.463 609.3 558.601 609.3 565.926L609.3 614.755C609.3 648.122 637.181 675.793 670.801 675.793 674.901 675.793 678.181 675.793 682.281 674.979L683.101 674.979C686.381 674.979 688.841 677.42 688.841 679.862 689.661 683.117 687.201 686.372 683.921 687.186 679.821 688 674.901 688 670.801 688L670.801 688Z" fill="#00608F" fill-rule="evenodd"/><path d="M708.503 670.529C706.014 668.059 706.844 663.941 709.332 661.471 723.433 649.941 731.728 632.647 731.728 613.706L731.728 595.588C731.728 592.294 734.217 589 738.364 589 742.512 589 745 591.471 745 595.588L745 614.529C745 636.765 735.046 657.353 717.627 671.353 716.797 672.177 715.138 673 713.479 673 711.82 673 710.161 672.177 708.503 670.529Z" fill="#BE4932" fill-rule="evenodd"/><path d="M627 611.487 627 562.637C627 542.283 643.533 526 664.2 526 672.467 526 679.907 528.442 686.52 533.327 688.173 534.142 689 535.77 689 537.398 689 539.027 689 540.655 688.173 542.283 687.347 543.912 684.867 544.726 683.213 544.726 681.56 544.726 680.733 543.912 679.907 543.097 675.773 539.841 669.987 538.212 665.027 538.212 650.973 538.212 640.227 548.797 640.227 562.637L640.227 611.487C640.227 614.743 637.747 618 634.44 618 630.307 618 627 614.743 627 611.487Z" fill="#00608F" fill-rule="evenodd"/><path d="M679.862 657C674.887 657 669.913 656.184 664.938 653.737 663.28 652.921 662.451 652.105 661.622 650.474 660.793 648.842 660.793 647.211 661.622 645.579 662.451 643.132 664.938 641.5 667.425 641.5 668.255 641.5 669.084 641.5 669.913 642.316 673.229 643.947 676.545 643.947 679.862 643.947 686.495 643.947 693.127 641.5 697.273 636.605 702.247 631.711 704.735 626 704.735 619.474L704.735 570.526C704.735 567.263 707.222 564 711.367 564 714.684 564 718 566.447 718 570.526L718 619.474C717.171 640.684 700.589 657 679.862 657L679.862 657Z" fill="#BE4932" fill-rule="evenodd"/><path d="M688.5 602C685.25 602 682 599.55 682 595.467L682 559.533C682 556.267 684.438 553 688.5 553 692.563 553 695 555.45 695 559.533L695 596.283C695 599.55 691.75 602 688.5 602Z" fill="#BE4932" fill-rule="evenodd"/><path d="M660.5 629C657.25 629 654 626.59 654 622.574L654 586.426C654 583.213 656.438 580 660.5 580 664.563 580 667 582.41 667 586.426L667 622.574C667 625.787 664.563 629 660.5 629Z" fill="#00608F" fill-rule="evenodd"/></g></svg>