<?xml version="1.0" encoding="utf-8"?>
<!-- Generator: Adobe Illustrator 24.1.0, SVG Export Plug-In . SVG Version: 6.00 Build 0)  -->
<svg version="1.1" id="Layer_1" xmlns="http://www.w3.org/2000/svg" xmlns:xlink="http://www.w3.org/1999/xlink" x="0px" y="0px"
	 viewBox="0 0 24 24" style="enable-background:new 0 0 24 24;" xml:space="preserve">
<style type="text/css">
	.st0{fill:#BE4932;}
	.st1{fill:#00608F;}
</style>
<g>
	<path class="st0" d="M19.8,9c0-4.1-3.4-7.5-7.5-7.5c-1.7,0-3.4,0.6-4.8,1.7C7.4,3.3,7.2,3.4,7,3.4S6.6,3.3,6.4,3.1
		C6.3,3,6.3,2.8,6.3,2.6s0.1-0.4,0.3-0.5C8.1,0.7,10.2,0,12.3,0c5,0,9,4,9,9c0,0.4-0.3,0.8-0.8,0.8C20.1,9.8,19.8,9.4,19.8,9z"/>
	<path class="st1" d="M12.3,24c-5,0-9-4-9-9V9c0-1.1,0.2-2.2,0.6-3.3C4,5.4,4.3,5.2,4.6,5.2c0.1,0,0.2,0,0.3,0.1
		c0.4,0.2,0.6,0.6,0.4,1C4.9,7.1,4.8,8.1,4.8,9v6c0,4.1,3.4,7.5,7.5,7.5c0.5,0,0.9,0,1.4-0.1h0.1c0.4,0,0.7,0.3,0.7,0.6
		c0.1,0.4-0.2,0.8-0.6,0.9C13.4,24,12.8,24,12.3,24L12.3,24z"/>
	<path class="st0" d="M16.9,21.8c-0.3-0.3-0.2-0.8,0.1-1.1c1.7-1.4,2.7-3.5,2.7-5.8v-2.2c0-0.4,0.3-0.8,0.8-0.8s0.8,0.3,0.8,0.8V15
		c0,2.7-1.2,5.2-3.3,6.9c-0.1,0.1-0.3,0.2-0.5,0.2S17.1,22,16.9,21.8z"/>
	<path class="st1" d="M7,14.6v-6c0-2.5,2-4.5,4.5-4.5c1,0,1.9,0.3,2.7,0.9c0.2,0.1,0.3,0.3,0.3,0.5s0,0.4-0.1,0.6S14,6.4,13.8,6.4
		c-0.2,0-0.3-0.1-0.4-0.2c-0.5-0.4-1.2-0.6-1.8-0.6c-1.7,0-3,1.3-3,3v6c0,0.4-0.3,0.8-0.7,0.8C7.4,15.4,7,15,7,14.6z"/>
	<path class="st0" d="M13.4,20.2c-0.6,0-1.2-0.1-1.8-0.4c-0.2-0.1-0.3-0.2-0.4-0.4c-0.1-0.2-0.1-0.4,0-0.6c0.1-0.3,0.4-0.5,0.7-0.5
		c0.1,0,0.2,0,0.3,0.1c0.4,0.2,0.8,0.2,1.2,0.2c0.8,0,1.6-0.3,2.1-0.9c0.6-0.6,0.9-1.3,0.9-2.1v-6c0-0.4,0.3-0.8,0.8-0.8
		c0.4,0,0.8,0.3,0.8,0.8v6C17.9,18.2,15.9,20.2,13.4,20.2L13.4,20.2z"/>
	<path class="st0" d="M14.5,13.4c-0.4,0-0.8-0.3-0.8-0.8V8.2c0-0.4,0.3-0.8,0.8-0.8s0.8,0.3,0.8,0.8v4.5
		C15.3,13.1,14.9,13.4,14.5,13.4z"/>
	<path class="st1" d="M11.1,16.8c-0.4,0-0.8-0.3-0.8-0.8v-4.5c0-0.4,0.3-0.8,0.8-0.8s0.8,0.3,0.8,0.8V16
		C11.9,16.4,11.6,16.8,11.1,16.8z"/>
</g>
</svg>
