<?xml version="1.0" encoding="utf-8"?>
<!-- Generator: Adobe Illustrator 24.1.1, SVG Export Plug-In . SVG Version: 6.00 Build 0)  -->
<svg version="1.0" id="Ebene_1" xmlns="http://www.w3.org/2000/svg" xmlns:xlink="http://www.w3.org/1999/xlink" x="0px" y="0px"
	 viewBox="0 0 16 21" enable-background="new 0 0 16 21" xml:space="preserve">
<g>
	<g transform="translate(-628 -344)">
		
			<path fill="none" stroke="#BE4A32" stroke-width="1.5" stroke-linecap="round" stroke-linejoin="round" stroke-miterlimit="10" d="
			M632.5,348c0,0.2-0.2,0.3-0.3,0.3c-0.2,0-0.3-0.2-0.3-0.3l0,0c0-0.2,0.2-0.3,0.3-0.3l0,0C632.4,347.7,632.5,347.8,632.5,348
			L632.5,348L632.5,348"/>
		
			<path fill="none" stroke="#BE4A32" stroke-width="1.5" stroke-linecap="round" stroke-linejoin="round" stroke-miterlimit="10" d="
			M634.6,348.6h3.6c0.6,0,1.1-0.4,1.1-1l0,0c0-0.5-0.5-1-1.1-1l0,0h-3.6c-0.6-1.3-2.3-1.8-3.7-1.3l0,0c-1.4,0.5-2.1,2-1.4,3.3l0,0
			c0.6,1.3,2.3,1.8,3.7,1.3l0,0C633.8,349.7,634.3,349.2,634.6,348.6z"/>
		
			<path fill="none" stroke="#000000" stroke-width="1.5" stroke-linecap="round" stroke-linejoin="round" stroke-miterlimit="10" d="
			M631.2,355.1h7.4"/>
		
			<path fill="none" stroke="#000000" stroke-width="1.5" stroke-linecap="round" stroke-linejoin="round" stroke-miterlimit="10" d="
			M631.2,358.2h6"/>
		
			<path fill="none" stroke="#000000" stroke-width="1.5" stroke-linecap="round" stroke-linejoin="round" stroke-miterlimit="10" d="
			M631.2,360.7h4"/>
		
			<path fill="none" stroke="#000000" stroke-width="1.5" stroke-linecap="round" stroke-linejoin="round" stroke-miterlimit="10" d="
			M636.4,363.8h-6.2c-0.6,0-1-0.4-1-1v-10.5c0-0.5,0.5-1,1-1h7.3c0.3,0,0.6,0.1,0.8,0.3l2,1.8c0.2,0.2,0.3,0.4,0.3,0.7v1.5"/>
		<path fill-rule="evenodd" clip-rule="evenodd" fill="#BE4A32" stroke="#000000" stroke-width="1.5" stroke-miterlimit="8" d="
			M643.3,361c0,1.5-1.4,2.8-3,2.8s-3-1.3-3-2.8c0-1.5,1.4-2.8,3-2.8S643.3,359.5,643.3,361z"/>
	</g>
</g>
</svg>
