<svg id="Ebene_1" data-name="Ebene 1" xmlns="http://www.w3.org/2000/svg" viewBox="0 0 23.98 24"><defs><style>.cls-1,.cls-2,.cls-3{fill:none;stroke-linecap:round;stroke-linejoin:round;stroke-width:1.5px;}.cls-1{stroke:#000;}.cls-2{stroke:#be4932;}.cls-3{stroke:#00608f;}</style></defs><path class="cls-1" d="M6.75,7.56V3a2.25,2.25,0,0,1,4.5,0V4" transform="translate(0)"/><path class="cls-2" d="M13.56,15.75A6,6,0,0,0,15.78,15l4.91,4.9a1.5,1.5,0,0,0,2.12-2.12l-4.91-4.9A6,6,0,0,0,9.74,4.61" transform="translate(0)"/><circle class="cls-1" cx="6.75" cy="9.06" r="1.5"/><path class="cls-3" d="M12.75,9.81a6,6,0,1,0-7.5,5.81v6.13a1.5,1.5,0,0,0,3,0V15.62A6,6,0,0,0,12.75,9.81Z" transform="translate(0)"/><rect x="5.99" y="3" width="1.49" height="1.67"/></svg>